<svg width="19" height="20" viewBox="0 0 19 20" fill="none" xmlns="http://www.w3.org/2000/svg">
<path d="M10.2963 19.364C8.85768 19.364 7.52301 19.1387 6.29234 18.688C5.07901 18.22 4.02168 17.5613 3.12034 16.712C2.23634 15.8627 1.54301 14.866 1.04034 13.722C0.537677 12.5607 0.286344 11.2867 0.286344 9.9C0.286344 8.51333 0.537677 7.248 1.04034 6.104C1.54301 4.94267 2.23634 3.93733 3.12034 3.088C4.02168 2.23867 5.07901 1.58867 6.29234 1.138C7.52301 0.669999 8.85768 0.435999 10.2963 0.435999C11.9777 0.435999 13.477 0.730666 14.7943 1.32C16.129 1.90933 17.2383 2.75867 18.1223 3.868L14.8463 6.832C14.257 6.13867 13.607 5.61 12.8963 5.246C12.203 4.882 11.423 4.7 10.5563 4.7C9.81101 4.7 9.12634 4.82133 8.50234 5.064C7.87834 5.30667 7.34101 5.662 6.89034 6.13C6.45701 6.58067 6.11034 7.12667 5.85034 7.768C5.60768 8.40933 5.48634 9.12 5.48634 9.9C5.48634 10.68 5.60768 11.3907 5.85034 12.032C6.11034 12.6733 6.45701 13.228 6.89034 13.696C7.34101 14.1467 7.87834 14.4933 8.50234 14.736C9.12634 14.9787 9.81101 15.1 10.5563 15.1C11.423 15.1 12.203 14.918 12.8963 14.554C13.607 14.19 14.257 13.6613 14.8463 12.968L18.1223 15.932C17.2383 17.024 16.129 17.8733 14.7943 18.48C13.477 19.0693 11.9777 19.364 10.2963 19.364Z" fill="#3F8CFF"/>
</svg>
