<svg width="31" height="32" viewBox="0 0 31 32" fill="none" xmlns="http://www.w3.org/2000/svg">
<rect y="0.263672" width="30.8714" height="30.8714" rx="8.96266" fill="#3F8CFF"/>
<mask id="mask0_2222_6270" style="mask-type:luminance" maskUnits="userSpaceOnUse" x="0" y="0" width="31" height="32">
<rect y="0.263672" width="30.8714" height="30.8714" rx="8.96266" fill="white"/>
</mask>
<g mask="url(#mask0_2222_6270)">
</g>
<path fill-rule="evenodd" clip-rule="evenodd" d="M11.1135 15.698L-nan -nanL11.1135 15.698C10.0947 15.698 9.26123 14.8645 9.26123 13.8458C9.26123 12.8269 10.0947 11.9934 11.1135 11.9934C12.1322 11.9934 12.9658 12.8269 12.9658 13.8458C12.9658 14.8645 12.1322 15.698 11.1135 15.698Z" fill="white"/>
<path fill-rule="evenodd" clip-rule="evenodd" d="M26.5494 11.5895C26.5494 8.4162 23.9098 5.81982 20.6838 5.81982H20.6837C17.4577 5.81982 14.8182 8.4162 14.8182 11.5895V20.0207C14.8182 20.0207 26.5483 18.736 26.5494 11.5903C26.5494 11.5901 26.5494 11.5898 26.5494 11.5895Z" fill="white"/>
<path fill-rule="evenodd" clip-rule="evenodd" d="M8.64307 23.2369C8.01832 23.2369 7.50732 22.7622 7.50732 22.1822C7.50732 21.602 8.01832 21.1274 8.64307 21.1274C9.26767 21.1274 9.77867 21.602 9.77867 22.1822C9.77867 22.7622 9.26767 23.2369 8.64307 23.2369ZM4.32141 22.1816C4.32141 22.1819 4.32141 22.1823 4.32141 22.1825C4.32141 24.39 6.26624 26.1962 8.6434 26.1962C11.0204 26.1962 12.9654 24.39 12.9654 22.1825V16.3174C12.9654 16.3174 4.32254 17.211 4.32141 22.1816Z" fill="white"/>
</svg>
