<svg width="460" height="416" viewBox="0 0 460 416" fill="none" xmlns="http://www.w3.org/2000/svg">
<g clip-path="url(#clip0_2471_6728)">
<path d="M11 351L458 351" stroke="#263238" stroke-width="2.5" stroke-linecap="round" stroke-linejoin="round"/>
<path d="M49.6201 290.7H438.53C448.67 290.7 456.86 282.43 456.76 272.29L454.32 19.6601C454.22 9.6601 446.09 1.6001 436.09 1.6001H47.1801C37.0401 1.6001 28.8501 9.8701 28.9501 20.0101L31.3901 272.64C31.4901 282.64 39.6201 290.7 49.6201 290.7Z" fill="#9ABAE3"/>
<path d="M454.32 19.6501C454.22 9.65009 446.09 1.59009 436.09 1.59009H47.1802C41.1202 1.59009 35.7702 4.56009 32.4502 9.11009C35.3202 7.22009 38.7502 6.11009 42.4502 6.11009H432.37C442.37 6.11009 449.49 13.1501 449.59 23.1501L452.03 276.8C452.07 280.88 450.75 284.64 448.53 287.69C453.54 284.4 456.83 278.72 456.77 272.28L454.33 19.6501H454.32Z" fill="white"/>
<path d="M49.8801 291.04L438.79 290.34C448.93 290.32 457.11 282.04 456.99 271.9L454.1 19.27C453.99 9.27 445.84 1.23 435.83 1.24L46.9201 1.95C36.7801 1.97 28.6001 10.25 28.7201 20.39L31.6101 273.02C31.7201 283.02 39.8701 291.06 49.8801 291.05V291.04Z" stroke="#263238" stroke-width="2.5" stroke-linecap="round" stroke-linejoin="round"/>
<path d="M441.6 17.3899H44.1201V274.91H441.6V17.3899Z" fill="white"/>
<path d="M124.36 40.2899V17.7999H109.56C109.53 17.6599 109.5 17.5299 109.47 17.3799H78.6801C80.6601 20.8199 81.7801 24.7899 81.7801 29.0399C81.7801 42.0099 71.2701 52.5199 58.3001 52.5199C52.9701 52.5199 48.0601 50.7499 44.1201 47.7499V79.5699C45.0801 79.8399 46.0701 80.0899 47.0501 80.2999V95.0999H69.5401V80.2999C75.7101 78.9599 81.4501 76.5299 86.5801 73.2299L97.0501 83.6999L112.96 67.7899L102.49 57.3299C105.79 52.1899 108.22 46.4399 109.56 40.2799H124.36V40.2899Z" stroke="#9ABAE3" stroke-width="2.5" stroke-linecap="round" stroke-linejoin="round"/>
<path d="M60.4999 130.92C61.1199 133.77 62.2499 136.43 63.7699 138.81L58.9199 143.66L66.2899 151.03L71.1399 146.18C73.5199 147.71 76.1799 148.83 79.0299 149.45V156.3H89.4499V149.45C92.2999 148.83 94.9599 147.7 97.3399 146.18L102.19 151.03L109.56 143.66L104.71 138.81C106.24 136.43 107.36 133.77 107.98 130.92H114.83V120.5H107.98C107.36 117.65 106.23 114.99 104.71 112.61L109.56 107.76L102.19 100.39L97.3399 105.24C94.9599 103.71 92.2999 102.59 89.4499 101.97V95.1199H79.0299V101.97C76.1799 102.59 73.5199 103.72 71.1399 105.24L66.2899 100.39L58.9199 107.76L63.7699 112.61C62.2399 114.99 61.1199 117.65 60.4999 120.5H53.6499V130.92H60.4999ZM73.3699 125.71C73.3699 119.71 78.2399 114.84 84.2399 114.84C90.2399 114.84 95.1099 119.71 95.1099 125.71C95.1099 131.71 90.2399 136.58 84.2399 136.58C78.2399 136.58 73.3699 131.71 73.3699 125.71Z" stroke="#9ABAE3" stroke-width="2.5" stroke-linecap="round" stroke-linejoin="round"/>
<path d="M441.28 217.67C436.14 214.37 430.39 211.95 424.24 210.6V195.81H401.74V210.6C395.59 211.95 389.84 214.37 384.7 217.67L374.24 207.21L358.33 223.12L368.8 233.58C365.49 238.72 363.07 244.47 361.72 250.62H346.93V273.12H361.72C361.85 273.72 361.99 274.32 362.15 274.9H393.46C390.97 271.17 389.52 266.68 389.52 261.86C389.52 248.9 400.03 238.39 413 238.39C425.97 238.39 436.47 248.9 436.47 261.86C436.47 266.68 435.02 271.17 432.53 274.9H441.6V217.35L441.29 217.66L441.28 217.67Z" stroke="#9ABAE3" stroke-width="2.5" stroke-linecap="round" stroke-linejoin="round"/>
<path d="M371.37 175.07C371.86 177.33 372.76 179.44 373.97 181.33L370.12 185.18L375.96 191.02L379.81 187.17C381.7 188.38 383.81 189.27 386.07 189.77V195.21H394.33V189.77C396.59 189.28 398.7 188.38 400.59 187.17L404.44 191.02L410.28 185.18L406.43 181.33C407.64 179.44 408.53 177.33 409.03 175.07H414.47V166.81H409.03C408.54 164.55 407.64 162.44 406.43 160.55L410.28 156.7L404.44 150.86L400.59 154.71C398.7 153.5 396.59 152.61 394.33 152.11V146.67H386.07V152.11C383.81 152.6 381.7 153.5 379.81 154.71L375.96 150.86L370.12 156.7L373.97 160.55C372.76 162.44 371.87 164.55 371.37 166.81H365.93V175.07H371.37ZM381.58 170.94C381.58 166.18 385.44 162.31 390.21 162.31C394.98 162.31 398.84 166.17 398.84 170.94C398.84 175.71 394.98 179.57 390.21 179.57C385.44 179.57 381.58 175.71 381.58 170.94Z" stroke="#9ABAE3" stroke-width="2.5" stroke-linecap="round" stroke-linejoin="round"/>
<path d="M441.6 17.3899H44.1201V274.91H441.6V17.3899Z" stroke="#263238" stroke-width="2.5" stroke-linecap="round" stroke-linejoin="round"/>
<path d="M272.04 291.01H213.67V336.21H272.04V291.01Z" fill="#9ABAE3" stroke="#263238" stroke-width="2.5" stroke-linecap="round" stroke-linejoin="round"/>
<path d="M319.98 350.6H168.16C168.16 341.35 175.66 333.84 184.92 333.84H303.23C312.48 333.84 319.99 341.34 319.99 350.6H319.98Z" fill="#9ABAE3" stroke="#263238" stroke-width="2.5" stroke-linecap="round" stroke-linejoin="round"/>
<path d="M272.04 291.01H213.67V303.77H272.04V291.01Z" fill="#263238" stroke="#263238" stroke-width="2.5" stroke-linecap="round" stroke-linejoin="round"/>
<path d="M185.29 135.58H166.69V151.42H143.92L181.04 100.51H160.37L120.25 154.2V167.38H166.08V185.15H185.29V167.38H199.15V151.42H185.29V135.58Z" fill="#3F8CFF"/>
<path d="M185.29 135.58H181.8V151.42H185.29V135.58Z" fill="white"/>
<path d="M143.92 151.42L181.04 100.51H177.54L140.42 151.42H143.92Z" fill="white"/>
<path d="M185.29 167.38H181.8V185.16H185.29V167.38Z" fill="white"/>
<path d="M199.15 151.42H195.66V167.38H199.15V151.42Z" fill="white"/>
<path d="M185.29 135.58H166.69V151.42H143.92L181.04 100.51H160.37L120.25 154.2V167.38H166.08V185.15H185.29V167.38H199.15V151.42H185.29V135.58Z" stroke="#263238" stroke-width="2.5" stroke-linecap="round" stroke-linejoin="round"/>
<path d="M260.24 102.13C254.77 98.7 248.51 96.99 241.46 96.99C234.41 96.99 228.27 98.7 222.8 102.13C217.33 105.56 212.99 110.52 209.79 117C206.59 123.49 204.99 131.41 204.99 140.76C204.99 150.11 206.59 158.03 209.79 164.52C212.99 171.01 217.33 175.97 222.8 179.39C228.27 182.82 234.49 184.53 241.46 184.53C248.43 184.53 254.77 182.82 260.24 179.39C265.71 175.96 270.04 171.01 273.25 164.52C276.45 158.03 278.05 150.11 278.05 140.76C278.05 131.41 276.45 123.49 273.25 117C270.05 110.51 265.71 105.55 260.24 102.13ZM255.98 156.36C254.56 160.39 252.62 163.35 250.15 165.25C247.68 167.14 244.78 168.09 241.46 168.09C238.14 168.09 235.46 167.14 232.95 165.25C230.44 163.36 228.45 160.39 226.99 156.36C225.53 152.33 224.8 147.13 224.8 140.76C224.8 134.39 225.53 129.19 226.99 125.16C228.45 121.13 230.43 118.17 232.95 116.27C235.46 114.38 238.3 113.43 241.46 113.43C244.78 113.43 247.68 114.38 250.15 116.27C252.62 118.16 254.57 121.13 255.98 125.16C257.4 129.19 258.11 134.39 258.11 140.76C258.11 147.13 257.4 152.33 255.98 156.36Z" fill="#3F8CFF"/>
<path d="M232.94 116.28C234.91 114.8 237.08 113.9 239.44 113.58C238.76 113.49 238.06 113.44 237.34 113.44C234.18 113.44 231.34 114.39 228.83 116.28C226.32 118.17 224.33 121.14 222.87 125.17C221.41 129.2 220.68 134.4 220.68 140.77C220.68 147.14 221.41 152.34 222.87 156.37C224.33 160.4 226.31 163.36 228.83 165.26C231.34 167.15 234.18 168.1 237.34 168.1C238.06 168.1 238.76 168.05 239.44 167.96C237.07 167.64 234.9 166.74 232.94 165.26C230.43 163.37 228.44 160.4 226.98 156.37C225.52 152.34 224.79 147.14 224.79 140.77C224.79 134.4 225.52 129.2 226.98 125.17C228.44 121.14 230.42 118.18 232.94 116.28Z" fill="white"/>
<path d="M273.25 117C270.05 110.51 265.71 105.55 260.24 102.13C254.77 98.7 248.51 96.99 241.46 96.99C240.77 96.99 240.09 97.01 239.42 97.04C245.63 97.34 251.21 99.04 256.14 102.12C261.61 105.55 265.94 110.51 269.15 116.99C272.35 123.48 273.95 131.4 273.95 140.75C273.95 150.1 272.35 158.02 269.15 164.51C265.95 171 261.61 175.96 256.14 179.38C251.21 182.47 245.63 184.16 239.42 184.46C240.09 184.49 240.77 184.51 241.46 184.51C248.51 184.51 254.77 182.8 260.24 179.37C265.71 175.94 270.04 170.99 273.25 164.5C276.45 158.01 278.05 150.09 278.05 140.74C278.05 131.39 276.45 123.47 273.25 116.98V117Z" fill="white"/>
<path d="M260.24 102.13C254.77 98.7 248.51 96.99 241.46 96.99C234.41 96.99 228.27 98.7 222.8 102.13C217.33 105.56 212.99 110.52 209.79 117C206.59 123.49 204.99 131.41 204.99 140.76C204.99 150.11 206.59 158.03 209.79 164.52C212.99 171.01 217.33 175.97 222.8 179.39C228.27 182.82 234.49 184.53 241.46 184.53C248.43 184.53 254.77 182.82 260.24 179.39C265.71 175.96 270.04 171.01 273.25 164.52C276.45 158.03 278.05 150.11 278.05 140.76C278.05 131.41 276.45 123.49 273.25 117C270.05 110.51 265.71 105.55 260.24 102.13ZM255.98 156.36C254.56 160.39 252.62 163.35 250.15 165.25C247.68 167.14 244.78 168.09 241.46 168.09C238.14 168.09 235.46 167.14 232.95 165.25C230.44 163.36 228.45 160.39 226.99 156.36C225.53 152.33 224.8 147.13 224.8 140.76C224.8 134.39 225.53 129.19 226.99 125.16C228.45 121.13 230.43 118.17 232.95 116.27C235.46 114.38 238.3 113.43 241.46 113.43C244.78 113.43 247.68 114.38 250.15 116.27C252.62 118.16 254.57 121.13 255.98 125.16C257.4 129.19 258.11 134.39 258.11 140.76C258.11 147.13 257.4 152.33 255.98 156.36Z" stroke="#263238" stroke-width="2.5" stroke-linecap="round" stroke-linejoin="round"/>
<path d="M365.45 151.42H351.59V135.58H332.99V151.42H310.22L347.34 100.51H326.67L286.55 154.2V167.38H332.39V185.15H351.59V167.38H365.45V151.42Z" fill="#3F8CFF"/>
<path d="M365.45 151.42H351.59V135.58H332.99V151.42H310.22L347.34 100.51H326.67L286.55 154.2V167.38H332.39V185.15H351.59V167.38H365.45V151.42Z" fill="#3F8CFF"/>
<path d="M351.59 135.58H347.56V151.42H351.59V135.58Z" fill="white"/>
<path d="M310.22 151.42L347.34 100.51H343.31L306.19 151.42H310.22Z" fill="white"/>
<path d="M351.59 167.38H347.56V185.16H351.59V167.38Z" fill="white"/>
<path d="M365.45 151.42H361.42V167.38H365.45V151.42Z" fill="white"/>
<path d="M365.45 151.42H351.59V135.58H332.99V151.42H310.22L347.34 100.51H326.67L286.55 154.2V167.38H332.39V185.15H351.59V167.38H365.45V151.42Z" stroke="#263238" stroke-width="2.5" stroke-linecap="round" stroke-linejoin="round"/>
<path d="M171.53 80.1098V69.5898H176.09C177.03 69.5898 177.84 69.7399 178.53 70.0499C179.21 70.3599 179.74 70.7899 180.11 71.3699C180.48 71.9399 180.67 72.6199 180.67 73.4099C180.67 74.1999 180.48 74.8698 180.11 75.4398C179.74 76.0099 179.21 76.4498 178.53 76.7598C177.85 77.0698 177.04 77.2198 176.09 77.2198H172.89L173.97 76.1199V80.1199H171.53V80.1098ZM173.97 76.3798L172.89 75.2198H175.96C176.71 75.2198 177.27 75.0598 177.64 74.7398C178.01 74.4198 178.2 73.9698 178.2 73.3998C178.2 72.8298 178.01 72.3699 177.64 72.0499C177.27 71.7299 176.71 71.5698 175.96 71.5698H172.89L173.97 70.4099V76.3798Z" fill="#263238"/>
<path d="M180.48 80.1098L185.17 69.5898H187.58L192.29 80.1098H189.73L185.88 70.8198H186.84L182.98 80.1098H180.48ZM182.83 77.8498L183.48 75.9998H188.89L189.55 77.8498H182.83Z" fill="#263238"/>
<path d="M198.31 80.2899C197.48 80.2899 196.71 80.1599 196.02 79.8899C195.32 79.6199 194.72 79.2499 194.2 78.7499C193.68 78.2599 193.28 77.6799 193 77.0199C192.71 76.3599 192.57 75.6299 192.57 74.8399C192.57 74.0499 192.71 73.3199 193 72.6599C193.29 71.9999 193.69 71.4199 194.21 70.9299C194.73 70.4399 195.34 70.0599 196.04 69.7899C196.74 69.5199 197.51 69.3899 198.36 69.3899C199.29 69.3899 200.13 69.5499 200.88 69.8599C201.63 70.1699 202.26 70.6199 202.77 71.2099L201.21 72.6499C200.83 72.2499 200.41 71.9499 199.96 71.7599C199.51 71.5599 199.02 71.4699 198.49 71.4699C197.96 71.4699 197.51 71.5499 197.09 71.7099C196.67 71.8699 196.31 72.0999 196 72.3999C195.69 72.6999 195.46 73.0599 195.29 73.4699C195.12 73.8799 195.04 74.3399 195.04 74.8399C195.04 75.3399 195.12 75.7799 195.29 76.1899C195.46 76.5999 195.69 76.9599 196 77.2599C196.31 77.5699 196.67 77.7999 197.08 77.9599C197.5 78.1199 197.95 78.1999 198.46 78.1999C198.97 78.1999 199.41 78.1199 199.87 77.9699C200.33 77.8099 200.77 77.5499 201.2 77.1799L202.58 78.9399C202.01 79.3699 201.35 79.6999 200.59 79.9299C199.83 80.1599 199.08 80.2799 198.33 80.2799L198.31 80.2899ZM200.34 78.6299V74.6799H202.57V78.9499L200.34 78.6299Z" fill="#263238"/>
<path d="M207.24 78.1498H212.97V80.0998H204.82V69.5798H212.77V71.5298H207.24V78.1398V78.1498ZM207.06 73.8198H212.13V75.7098H207.06V73.8198Z" fill="#263238"/>
<path d="M219.16 80.1098V69.5898H221.17L227.38 77.1698H226.4V69.5898H228.81V80.1098H226.81L220.59 72.5298H221.57V80.1098H219.16Z" fill="#263238"/>
<path d="M236.43 80.2899C235.6 80.2899 234.83 80.1499 234.12 79.8799C233.41 79.6099 232.8 79.2299 232.29 78.7399C231.77 78.2499 231.37 77.6699 231.09 77.0099C230.8 76.3499 230.66 75.6299 230.66 74.8499C230.66 74.0699 230.8 73.3499 231.09 72.6899C231.38 72.0299 231.78 71.4499 232.3 70.9599C232.82 70.4699 233.43 70.0899 234.13 69.8199C234.83 69.5499 235.59 69.4099 236.41 69.4099C237.23 69.4099 238.01 69.5499 238.7 69.8199C239.4 70.0899 240 70.4699 240.52 70.9599C241.04 71.4499 241.44 72.0299 241.73 72.6799C242.02 73.3399 242.17 74.0599 242.17 74.8499C242.17 75.6399 242.02 76.3599 241.73 77.0199C241.44 77.6899 241.04 78.2599 240.52 78.7499C240 79.2399 239.4 79.6099 238.7 79.8799C238 80.1499 237.24 80.2899 236.42 80.2899H236.43ZM236.41 78.2099C236.88 78.2099 237.31 78.1299 237.71 77.9699C238.11 77.8099 238.45 77.5799 238.75 77.2799C239.05 76.9799 239.28 76.6199 239.45 76.2099C239.62 75.7999 239.7 75.3399 239.7 74.8399C239.7 74.3399 239.62 73.8799 239.45 73.4699C239.28 73.0599 239.05 72.6999 238.76 72.3999C238.46 72.0999 238.12 71.8699 237.71 71.7099C237.31 71.5499 236.87 71.4699 236.4 71.4699C235.93 71.4699 235.5 71.5499 235.1 71.7099C234.7 71.8699 234.36 72.0999 234.06 72.3999C233.76 72.6999 233.53 73.0599 233.36 73.4699C233.19 73.8799 233.11 74.3399 233.11 74.8399C233.11 75.3399 233.19 75.7899 233.36 76.1999C233.53 76.6199 233.76 76.9699 234.05 77.2699C234.35 77.5699 234.69 77.7999 235.1 77.9599C235.5 78.1199 235.94 78.1999 236.41 78.1999V78.2099Z" fill="#263238"/>
<path d="M246.03 80.1098V71.5698H242.66V69.5898H251.83V71.5698H248.46V80.1098H246.02H246.03Z" fill="#263238"/>
<path d="M259.83 80.1098H257.39V69.5898H265.34V71.5398H259.82V80.1098H259.83ZM259.65 74.3198H264.7V76.2698H259.65V74.3198Z" fill="#263238"/>
<path d="M272.01 80.2899C271.18 80.2899 270.41 80.1499 269.7 79.8799C268.99 79.6099 268.38 79.2299 267.87 78.7399C267.35 78.2499 266.95 77.6699 266.67 77.0099C266.38 76.3499 266.24 75.6299 266.24 74.8499C266.24 74.0699 266.38 73.3499 266.67 72.6899C266.96 72.0299 267.36 71.4499 267.88 70.9599C268.4 70.4699 269.01 70.0899 269.71 69.8199C270.41 69.5499 271.17 69.4099 271.99 69.4099C272.81 69.4099 273.59 69.5499 274.28 69.8199C274.98 70.0899 275.58 70.4699 276.1 70.9599C276.62 71.4499 277.02 72.0299 277.31 72.6799C277.6 73.3399 277.75 74.0599 277.75 74.8499C277.75 75.6399 277.6 76.3599 277.31 77.0199C277.02 77.6899 276.62 78.2599 276.1 78.7499C275.58 79.2399 274.98 79.6099 274.28 79.8799C273.58 80.1499 272.82 80.2899 272 80.2899H272.01ZM272 78.2099C272.47 78.2099 272.91 78.1299 273.3 77.9699C273.7 77.8099 274.04 77.5799 274.34 77.2799C274.64 76.9799 274.87 76.6199 275.04 76.2099C275.21 75.7999 275.29 75.3399 275.29 74.8399C275.29 74.3399 275.21 73.8799 275.04 73.4699C274.87 73.0599 274.64 72.6999 274.35 72.3999C274.05 72.0999 273.71 71.8699 273.3 71.7099C272.9 71.5499 272.46 71.4699 271.99 71.4699C271.52 71.4699 271.09 71.5499 270.69 71.7099C270.29 71.8699 269.95 72.0999 269.65 72.3999C269.35 72.6999 269.12 73.0599 268.95 73.4699C268.78 73.8799 268.7 74.3399 268.7 74.8399C268.7 75.3399 268.78 75.7899 268.95 76.1999C269.12 76.6199 269.35 76.9699 269.64 77.2699C269.94 77.5699 270.28 77.7999 270.69 77.9599C271.09 78.1199 271.53 78.1999 272 78.1999V78.2099Z" fill="#263238"/>
<path d="M284.27 80.2898C282.78 80.2898 281.61 79.8698 280.77 79.0398C279.93 78.2098 279.51 77.0199 279.51 75.4799V69.5898H281.95V75.3898C281.95 76.3898 282.15 77.1098 282.57 77.5598C282.98 77.9998 283.56 78.2198 284.3 78.2198C285.04 78.2198 285.62 77.9998 286.03 77.5598C286.44 77.1198 286.65 76.3998 286.65 75.3898V69.5898H289.06V75.4799C289.06 77.0199 288.64 78.2098 287.8 79.0398C286.96 79.8698 285.79 80.2898 284.3 80.2898H284.27Z" fill="#263238"/>
<path d="M291.44 80.1098V69.5898H293.46L299.67 77.1698H298.69V69.5898H301.1V80.1098H299.1L292.88 72.5298H293.86V80.1098H291.45H291.44Z" fill="#263238"/>
<path d="M303.58 80.1098V69.5898H308.36C309.5 69.5898 310.51 69.8098 311.38 70.2398C312.25 70.6798 312.93 71.2798 313.42 72.0698C313.91 72.8498 314.16 73.7798 314.16 74.8498C314.16 75.9198 313.91 76.8399 313.42 77.6199C312.93 78.4099 312.25 79.0198 311.38 79.4498C310.51 79.8898 309.5 80.0998 308.36 80.0998H303.58V80.1098ZM306.02 78.1098H308.25C308.95 78.1098 309.56 77.9798 310.08 77.7098C310.6 77.4398 311 77.0698 311.28 76.5798C311.57 76.0898 311.71 75.5098 311.71 74.8498C311.71 74.1898 311.57 73.5998 311.28 73.1098C310.99 72.6198 310.59 72.2499 310.08 71.9799C309.56 71.7099 308.96 71.5798 308.25 71.5798H306.02V78.0998V78.1098Z" fill="#263238"/>
<path d="M291.61 200.56H194.09V234.02H291.61V200.56Z" fill="#263238" stroke="#263238" stroke-width="2.5" stroke-linecap="round" stroke-linejoin="round"/>
<path d="M205.46 222.06H214.14V225.02H201.8V209.08H213.84V212.04H205.46V222.06ZM205.18 215.5H212.85V218.37H205.18V215.5Z" fill="white"/>
<path d="M217.07 225.02V209.08H223.97C225.4 209.08 226.63 209.31 227.66 209.78C228.69 210.24 229.49 210.91 230.05 211.77C230.61 212.63 230.89 213.67 230.89 214.87C230.89 216.07 230.61 217.08 230.05 217.93C229.49 218.79 228.69 219.44 227.66 219.9C226.63 220.36 225.4 220.58 223.97 220.58H219.12L220.76 218.96V225.02H217.07ZM220.76 219.37L219.12 217.64H223.77C224.91 217.64 225.76 217.39 226.32 216.9C226.88 216.41 227.16 215.73 227.16 214.86C227.16 213.99 226.88 213.3 226.32 212.81C225.76 212.32 224.91 212.08 223.77 212.08H219.12L220.76 210.33V219.37ZM227.2 225.02L223.21 219.24H227.15L231.18 225.02H227.2Z" fill="white"/>
<path d="M233.8 225.02V209.08H240.7C242.13 209.08 243.36 209.31 244.39 209.78C245.42 210.24 246.22 210.91 246.78 211.77C247.34 212.63 247.62 213.67 247.62 214.87C247.62 216.07 247.34 217.08 246.78 217.93C246.22 218.79 245.42 219.44 244.39 219.9C243.36 220.36 242.13 220.58 240.7 220.58H235.85L237.49 218.96V225.02H233.8ZM237.49 219.37L235.85 217.64H240.5C241.64 217.64 242.49 217.39 243.05 216.9C243.61 216.41 243.89 215.73 243.89 214.86C243.89 213.99 243.61 213.3 243.05 212.81C242.49 212.32 241.64 212.08 240.5 212.08H235.85L237.49 210.33V219.37ZM243.94 225.02L239.95 219.24H243.89L247.92 225.02H243.94Z" fill="white"/>
<path d="M258.28 225.29C257.02 225.29 255.86 225.09 254.78 224.68C253.71 224.27 252.78 223.69 252 222.95C251.22 222.21 250.61 221.33 250.18 220.33C249.75 219.33 249.53 218.23 249.53 217.05C249.53 215.87 249.75 214.77 250.18 213.77C250.61 212.77 251.22 211.9 252.01 211.15C252.8 210.41 253.73 209.83 254.79 209.42C255.85 209.01 257.01 208.81 258.25 208.81C259.49 208.81 260.67 209.01 261.72 209.42C262.77 209.83 263.69 210.41 264.47 211.15C265.25 211.89 265.86 212.76 266.3 213.76C266.74 214.75 266.96 215.85 266.96 217.05C266.96 218.25 266.74 219.33 266.3 220.34C265.86 221.35 265.25 222.22 264.47 222.96C263.69 223.7 262.77 224.27 261.72 224.68C260.66 225.09 259.51 225.29 258.27 225.29H258.28ZM258.26 222.15C258.97 222.15 259.63 222.03 260.23 221.79C260.83 221.55 261.36 221.2 261.81 220.74C262.26 220.28 262.62 219.75 262.87 219.12C263.12 218.5 263.25 217.81 263.25 217.05C263.25 216.29 263.13 215.6 262.87 214.98C262.62 214.36 262.27 213.82 261.82 213.36C261.37 212.9 260.84 212.56 260.24 212.31C259.63 212.07 258.97 211.95 258.26 211.95C257.55 211.95 256.89 212.07 256.29 212.31C255.69 212.55 255.16 212.9 254.71 213.36C254.26 213.82 253.9 214.36 253.65 214.98C253.4 215.6 253.27 216.29 253.27 217.05C253.27 217.81 253.4 218.48 253.65 219.11C253.9 219.74 254.25 220.28 254.7 220.74C255.15 221.2 255.68 221.54 256.28 221.79C256.88 222.04 257.55 222.15 258.26 222.15Z" fill="white"/>
<path d="M269.76 225.02V209.08H276.66C278.09 209.08 279.32 209.31 280.35 209.78C281.38 210.24 282.18 210.91 282.74 211.77C283.3 212.63 283.58 213.67 283.58 214.87C283.58 216.07 283.3 217.08 282.74 217.93C282.18 218.79 281.38 219.44 280.35 219.9C279.32 220.36 278.09 220.58 276.66 220.58H271.81L273.45 218.96V225.02H269.76ZM273.45 219.37L271.81 217.64H276.46C277.6 217.64 278.45 217.39 279.01 216.9C279.57 216.41 279.85 215.73 279.85 214.86C279.85 213.99 279.57 213.3 279.01 212.81C278.45 212.32 277.6 212.08 276.46 212.08H271.81L273.45 210.33V219.37ZM279.89 225.02L275.9 219.24H279.84L283.87 225.02H279.89Z" fill="white"/>
<path d="M388.23 288.01L449.47 345.81C451.01 347.26 449.98 349.68 447.86 349.58L363.75 345.41L388.23 288.01Z" fill="#3F8CFF"/>
<path d="M445.94 349.49L386.11 293.01L388.24 288.02L449.47 345.83C451.01 347.28 449.98 349.7 447.86 349.6L445.94 349.5V349.49Z" fill="white"/>
<path d="M388.23 288.01L449.47 345.81C451.01 347.26 449.98 349.68 447.86 349.58L363.75 345.41L388.23 288.01Z" stroke="#263238" stroke-width="2.5" stroke-linecap="round" stroke-linejoin="round"/>
<path d="M406.38 347.53L419.27 317.31L428.38 325.91L418.9 348.15L406.38 347.53Z" fill="#3F8CFF" stroke="#263238" stroke-width="2.5" stroke-linecap="round" stroke-linejoin="round"/>
<path d="M379.4 346.19L399.63 298.77L408.74 307.37L391.92 346.82L379.4 346.19Z" fill="#3F8CFF" stroke="#263238" stroke-width="2.5" stroke-linecap="round" stroke-linejoin="round"/>
<path d="M390.078 286.625L364.021 347.743C363.206 349.656 360.988 350.548 359.075 349.732L356.665 348.705C354.751 347.889 353.86 345.672 354.675 343.758L380.732 282.641C381.547 280.728 383.765 279.836 385.678 280.651L388.088 281.679C390.002 282.495 390.893 284.712 390.078 286.625Z" fill="#3F8CFF"/>
<path d="M356.21 348.44C354.6 347.51 353.9 345.49 354.66 343.72L380.72 282.61C381.54 280.69 383.75 279.8 385.66 280.62L388.06 281.64C389.65 282.32 390.54 283.95 390.32 285.59C390.19 285.51 390.05 285.43 389.9 285.37L387.48 284.34C385.56 283.52 383.35 284.42 382.54 286.33L356.48 347.46C356.34 347.78 356.26 348.1 356.21 348.44Z" fill="white"/>
<path d="M390.078 286.625L364.021 347.743C363.206 349.656 360.988 350.548 359.075 349.732L356.665 348.705C354.751 347.889 353.86 345.672 354.675 343.758L380.732 282.641C381.547 280.728 383.765 279.836 385.678 280.651L388.088 281.679C390.002 282.495 390.893 284.712 390.078 286.625Z" stroke="#263238" stroke-width="2.5" stroke-linecap="round" stroke-linejoin="round"/>
<path d="M379.4 346.19L399.63 298.77L408.74 307.37L391.92 346.82L379.4 346.19Z" fill="white" stroke="#263238" stroke-width="2.5" stroke-linecap="round" stroke-linejoin="round"/>
<path d="M406.38 347.53L419.27 317.31L428.38 325.91L418.9 348.15L406.38 347.53Z" fill="white" stroke="#263238" stroke-width="2.5" stroke-linecap="round" stroke-linejoin="round"/>
<path d="M197.36 414.75C259.995 414.75 310.77 410.053 310.77 404.26C310.77 398.466 259.995 393.77 197.36 393.77C134.726 393.77 83.9502 398.466 83.9502 404.26C83.9502 410.053 134.726 414.75 197.36 414.75Z" fill="#263238" stroke="#263238" stroke-width="2.5" stroke-linecap="round" stroke-linejoin="round"/>
<path d="M281.51 286.66C281.51 286.66 286.99 285.26 285.06 288.87L283.13 292.49L281.5 286.66H281.51Z" fill="#263238" stroke="#263238" stroke-width="2.5" stroke-linecap="round" stroke-linejoin="round"/>
<path d="M285.33 286.99L281.22 290.61C273.5 296.66 256.86 295.92 247.63 294.28L248.98 299.58L255.59 326.29C255.59 326.29 247.38 313.5 229.45 305.16C224.24 300.08 215.65 295.63 204 300.08C201.59 300.99 189.67 300.86 187.61 301.51H187.6C187.48 301.54 187.37 301.58 187.25 301.61H187.24C180.91 303.61 176.08 304.51 171.82 305.34C170.4 305.62 169.04 305.88 167.73 306.18H167.72C163.74 307.07 160.04 308.22 155.7 310.62C155.7 310.62 151.48 310.65 146.51 312.11C141.36 311.06 121.13 313.16 116.71 312.15L116.62 277.29L105.97 283.96C95.5701 289.29 90.4601 287.59 80.6501 287.27L77.0801 286.65C77.0801 286.65 77.0901 329.36 84.0301 340.48C93.4101 355.52 124.25 359.36 134.88 360.25C137.1 367.73 139.62 375.32 141.43 382.47C141.66 383.38 141.87 384.31 142.04 385.22C144.16 395.6 143.38 405.47 142.38 410.05C144.9 410.29 147.49 410.52 150.17 410.73C155.16 411.13 160.41 411.48 165.86 411.78C178.85 412.47 193.04 412.86 207.88 412.86C213.38 412.86 218.77 412.8 224.05 412.71C224.26 412.71 224.46 412.7 224.65 412.7C233.62 412.51 242.25 412.2 250.4 411.75C249.56 408.55 247.67 405.73 247.67 405.73C246.94 400.72 245.3 392.11 243.39 383.16C241.3 373.37 237.49 359 235.56 352.64C266.44 379.87 294.76 366.18 294.59 343.04C294.5 329.93 285.33 286.96 285.33 286.96V286.99Z" fill="#3F8CFF"/>
<path d="M255.4 326.41C255.32 326.28 255.24 326.15 255.15 326.03C254.84 325.6 254.45 325.22 254.07 324.85C248.42 319.29 242.49 313.88 236.06 309.22C233.37 307.27 230.47 305.64 227.81 303.66C222.48 299.7 216.33 297.42 209.62 298.62C206.62 299.16 203.76 300.32 200.73 300.73C197.65 301.15 194.4 300.93 191.29 301.11C190.09 301.18 188.79 301.52 187.59 301.52C187.47 301.55 187.36 301.59 187.23 301.62C187.2 301.62 187.18 301.63 187.15 301.64C187.78 302.61 188.32 303.64 188.78 304.72C191.53 304.59 194.32 304.62 197.02 304.16C199.95 303.66 202.83 302.85 205.76 302.38C213.1 301.2 218.82 303.8 224.68 307.98C229.98 311.76 236.01 314.42 241.38 318.14C244.12 320.04 246.78 322.05 249.35 324.18C250.61 325.22 251.84 326.28 253.05 327.37C253.73 327.98 256.49 329.84 256.61 330.72C256.4 329.23 256.16 327.68 255.38 326.41H255.4Z" fill="white"/>
<path d="M243.38 383.19C242 376.75 239.89 368.33 238.05 361.51C235.9 359.98 233.54 342.7 231.35 340.77C233.28 347.13 237.28 377.09 239.38 386.88C241.29 395.83 242.93 404.44 243.66 409.45C243.66 409.45 244.36 410.5 245.1 412.04C246.88 411.96 248.65 411.87 250.39 411.77C249.55 408.57 247.66 405.75 247.66 405.75C246.93 400.74 245.29 392.13 243.38 383.18V383.19Z" fill="white"/>
<path d="M285.33 286.99L281.22 290.61C281.11 290.69 280.99 290.76 280.88 290.84C280.88 290.91 280.89 290.98 280.9 291.06L281.33 290.68C281.33 290.68 290.49 333.65 290.59 346.76C290.63 353.03 288.57 358.6 284.94 362.86C291.02 358.44 294.65 351.37 294.59 343.07C294.5 329.96 285.33 286.99 285.33 286.99Z" fill="white"/>
<path d="M285.33 286.99L281.22 290.61C273.5 296.66 256.86 295.92 247.63 294.28L248.98 299.58L255.59 326.29C255.47 325.82 254.85 325.23 254.56 324.85C253.56 323.52 252.47 322.25 251.35 321.03C247.42 316.76 242.91 313.02 238.03 309.88C234.22 307.43 230.27 305.23 226.47 302.74C221.26 299.33 215.65 297.64 209.41 298.6C206.75 299.01 204.18 300.01 201.49 300.43C199.13 300.8 196.73 300.99 194.34 301C192.1 301 189.77 300.86 187.59 301.51C187.47 301.54 187.36 301.58 187.23 301.61C180.9 303.61 176.07 304.51 171.81 305.34C170.39 305.62 169.03 305.88 167.7 306.18C163.72 307.07 160.02 308.22 155.68 310.62C155.68 310.62 151.46 310.65 146.49 312.11C141.34 311.06 121.11 313.16 116.69 312.15L116.6 277.29L105.95 283.96C95.5501 289.29 90.4401 287.59 80.6301 287.27L77.0601 286.65C77.0601 286.65 77.0701 329.36 84.0101 340.48C93.3901 355.52 124.23 359.36 134.86 360.25C137.08 367.73 139.6 375.32 141.41 382.47C141.64 383.38 141.85 384.31 142.02 385.22C144.14 395.6 143.36 405.47 142.36 410.05C144.88 410.29 147.47 410.52 150.15 410.73C155.14 411.13 160.39 411.48 165.84 411.78C178.83 412.47 193.02 412.86 207.86 412.86C213.36 412.86 218.75 412.8 224.03 412.71C224.24 412.71 224.44 412.7 224.63 412.7C233.6 412.51 242.23 412.2 250.38 411.75C249.54 408.55 247.65 405.73 247.65 405.73C246.92 400.72 245.28 392.11 243.37 383.16C241.28 373.37 237.47 359 235.54 352.64C266.42 379.87 294.74 366.18 294.57 343.04C294.48 329.93 285.31 286.96 285.31 286.96L285.33 286.99Z" stroke="#263238" stroke-width="2.5" stroke-linecap="round" stroke-linejoin="round"/>
<path d="M235.55 352.66C230.78 338.02 224.21 325.13 224.21 325.13" stroke="#263238" stroke-width="2.5" stroke-linecap="round" stroke-linejoin="round"/>
<path d="M257.72 335.14L255.59 326.3" stroke="#263238" stroke-width="2.5" stroke-linecap="round" stroke-linejoin="round"/>
<path d="M112.91 321.95L116.89 313.51" stroke="#263238" stroke-width="2.5" stroke-linecap="round" stroke-linejoin="round"/>
<path d="M83.8201 281.24C83.8201 281.24 73.4201 284.81 77.0701 286.67C79.2001 287.76 83.9401 287.5 83.9401 287.5L83.8201 281.23V281.24Z" fill="#263238" stroke="#263238" stroke-width="2.5" stroke-linecap="round" stroke-linejoin="round"/>
<path d="M281.22 290.61L279.54 282.91C279.54 282.91 283.24 271.23 280.67 267.14C278.38 263.5 275.88 264.59 275.88 264.59C275.88 264.59 277.77 261.91 275.14 258.02C272.54 254.19 268.34 256.76 268.34 256.76C268.34 256.76 265.37 249.45 260.17 252.54C254.97 255.63 252.55 259.77 252.55 259.77C254.26 261.14 245.53 250.54 241.37 254.27C238.57 256.78 244.26 269.31 245.42 277.22C246.58 285.13 251.08 295.15 251.08 295.15C251.08 295.15 265.66 296.99 270.29 296.02C274.92 295.05 281.23 290.61 281.23 290.61H281.22Z" fill="#FCD8C3" stroke="#263238" stroke-width="2.5" stroke-linecap="round" stroke-linejoin="round"/>
<path d="M280.51 293.86C278.82 295.1 276.44 294.74 275.2 293.05L248.38 254.02L254.5 249.52L281.32 288.55C282.56 290.24 282.2 292.62 280.51 293.86Z" fill="#263238" stroke="#263238" stroke-width="2.5" stroke-linecap="round" stroke-linejoin="round"/>
<path d="M260.16 252.54C259.76 253 248.88 259.62 253.22 264.59C256.9 268.81 265.35 258.78 265.35 258.78" fill="#FCD8C3"/>
<path d="M260.16 252.54C259.76 253 248.88 259.62 253.22 264.59C256.9 268.81 265.35 258.78 265.35 258.78" stroke="#263238" stroke-width="2.5" stroke-linecap="round" stroke-linejoin="round"/>
<path d="M260.73 221.82C254.49 210 241.92 204.37 232.66 209.26C231.43 209.91 230.34 210.72 229.35 211.64C237.99 209.75 248.17 215.33 253.59 225.58C259.01 235.84 257.88 247.39 251.44 253.46C252.76 253.17 254.05 252.72 255.27 252.07C264.53 247.18 266.97 233.63 260.73 221.81V221.82Z" fill="#9ABAE3" stroke="#263238" stroke-width="2.5" stroke-linecap="round" stroke-linejoin="round"/>
<path d="M227.21 239.53C221.79 229.27 222.92 217.72 229.36 211.65C228.04 211.94 226.75 212.39 225.53 213.04C216.27 217.93 213.83 231.48 220.07 243.3C226.31 255.12 238.88 260.75 248.14 255.86C249.37 255.21 250.46 254.4 251.45 253.48C242.8 255.37 232.63 249.79 227.21 239.54V239.53Z" fill="#9ABAE3" stroke="#263238" stroke-width="2.5" stroke-linecap="round" stroke-linejoin="round"/>
<path d="M267.88 257.07C267.3 257.26 257.08 263.85 259.01 269.85C260.92 275.81 272.91 266.66 272.8 266.51" fill="#FCD8C3"/>
<path d="M267.88 257.07C267.3 257.26 257.08 263.85 259.01 269.85C260.92 275.81 272.91 266.66 272.8 266.51" stroke="#263238" stroke-width="2.5" stroke-linecap="round" stroke-linejoin="round"/>
<path d="M275.88 264.59C275.3 264.78 263.64 271.6 265.56 277.61C267.47 283.57 277.34 274.67 277.23 274.52" fill="#FCD8C3"/>
<path d="M275.88 264.59C275.3 264.78 263.64 271.6 265.56 277.61C267.47 283.57 277.34 274.67 277.23 274.52" stroke="#263238" stroke-width="2.5" stroke-linecap="round" stroke-linejoin="round"/>
<path d="M181.94 311.59C187.38 311.75 190.99 309.73 189.73 306.45C188.4 303.14 182.94 300.07 177.3 298.54C175.21 297.98 173.08 297.67 171.13 297.61C167.41 297.5 164.33 298.35 163.3 300.26C162.32 301.74 163.62 303.95 165.57 305.67C167.62 307.48 170.64 309.04 173.89 310.1C176.53 310.96 179.35 311.5 181.93 311.58L181.94 311.59Z" fill="#263238" stroke="#263238" stroke-width="2.5" stroke-linecap="round" stroke-linejoin="round"/>
<path d="M191.29 293.92C191.27 294.25 191.25 294.56 191.21 294.88C191.17 295.19 191.12 295.5 191.06 295.81C191.03 296.04 190.98 296.26 190.92 296.48C190.88 296.67 190.84 296.83 190.78 296.99C190.7 297.29 190.61 297.59 190.51 297.87C190.41 298.19 190.28 298.49 190.15 298.79C190.02 299.09 189.89 299.38 189.74 299.68C189.6 299.96 189.44 300.25 189.27 300.53C189.11 300.81 188.93 301.08 188.75 301.35C188.75 301.33 188.75 301.32 188.75 301.3C186.01 305.37 181.31 308.07 176.08 308.52C175.88 308.53 175.69 308.56 175.48 308.56C175.46 308.56 175.44 308.56 175.42 308.56C175.11 308.58 174.81 308.59 174.49 308.6C174.09 308.6 173.7 308.58 173.31 308.56C173.01 308.54 172.7 308.52 172.39 308.48C172.15 308.45 171.89 308.42 171.66 308.4C170.94 308.31 170.22 308.17 169.52 307.99C169.22 307.92 168.92 307.84 168.63 307.75C168.49 307.71 168.36 307.68 168.25 307.62C167.96 307.54 167.7 307.45 167.45 307.36H167.43C167.19 307.27 166.96 307.19 166.72 307.08C166.42 306.96 166.13 306.85 165.83 306.7C165.63 306.62 165.43 306.52 165.25 306.43C165.22 306.41 165.21 306.41 165.18 306.39C164.77 306.19 164.38 305.97 163.98 305.74C163.58 305.51 163.21 305.27 162.83 305.01C162.5 304.79 162.18 304.56 161.88 304.32L161.36 303.92C161.29 303.85 161.21 303.78 161.12 303.72C160.92 303.55 160.71 303.37 160.53 303.2C160.53 303.2 160.52 303.193 160.5 303.18C160.23 302.93 159.97 302.69 159.72 302.43L159.7 302.4C159.6 302.29 159.49 302.18 159.39 302.08C159.29 301.97 159.18 301.85 159.07 301.72C158.79 301.43 158.54 301.12 158.31 300.8C158.29 300.77 158.25 300.73 158.23 300.69L158.19 300.62C158.05 300.45 157.92 300.28 157.8 300.09C157.8 300.09 157.78 300.09 157.79 300.07C157.62 299.84 157.45 299.6 157.3 299.36C157.14 299.1 156.98 298.85 156.84 298.57C156.73 298.39 156.63 298.19 156.53 298C156.33 297.63 156.15 297.24 155.98 296.84C155.87 296.59 155.77 296.33 155.68 296.08C155.63 295.92 155.57 295.75 155.52 295.59C155.42 295.27 155.31 294.94 155.22 294.6C155.13 294.28 155.06 293.94 154.99 293.59C154.94 293.36 154.9 293.14 154.86 292.91C154.84 292.81 154.83 292.71 154.81 292.61C154.78 292.39 154.76 292.17 154.72 291.93C154.72 291.9 154.72 291.87 154.72 291.84C154.69 291.59 154.67 291.33 154.67 291.07C154.67 290.79 154.66 290.53 154.66 290.27C154.66 289.76 154.68 289.26 154.74 288.74C154.74 288.67 154.75 288.61 154.77 288.53C154.77 288.45 154.77 288.37 154.8 288.27C154.81 288.14 154.83 287.99 154.86 287.85C154.89 287.74 154.89 287.62 154.92 287.51C154.94 287.47 154.94 287.42 154.95 287.36C155 287.11 155.05 286.87 155.13 286.63C155.17 286.44 155.22 286.27 155.29 286.1C155.36 285.85 155.44 285.63 155.53 285.39C155.53 285.37 155.55 285.36 155.56 285.36C155.56 285.33 155.56 285.32 155.57 285.3C155.57 285.28 155.57 285.26 155.58 285.24C155.67 285.03 155.78 284.8 155.88 284.58C155.9 284.54 155.93 284.5 155.94 284.47C155.94 284.47 155.94 284.463 155.94 284.45C155.97 284.4 156 284.35 156.03 284.3C156.04 284.24 156.07 284.21 156.1 284.16C156.21 283.95 156.32 283.75 156.44 283.57C156.58 283.3 156.74 283.05 156.9 282.81C156.93 282.76 156.96 282.73 156.99 282.67C157.08 282.52 157.19 282.37 157.28 282.24C157.32 282.2 157.34 282.16 157.38 282.12C157.43 282.04 157.47 281.98 157.51 281.93C157.53 281.92 157.55 281.87 157.57 281.85C157.62 281.78 157.68 281.72 157.74 281.65C157.77 281.62 157.79 281.57 157.82 281.55C158.13 281.15 158.46 280.77 158.81 280.41C158.84 280.38 158.86 280.36 158.89 280.33C159.35 279.85 159.84 279.41 160.36 279C160.44 278.93 160.55 278.85 160.65 278.77C160.8 278.65 160.96 278.53 161.12 278.41H161.13C161.31 278.28 161.49 278.14 161.69 278.04C161.72 278.01 161.76 277.98 161.8 277.96C162.1 277.77 162.41 277.58 162.72 277.42L162.8 277.37C162.86 277.33 162.93 277.3 162.99 277.27L163.04 277.24C163.27 277.13 163.49 277.02 163.72 276.91C163.83 276.86 163.95 276.8 164.07 276.76C164.19 276.7 164.32 276.63 164.45 276.58C164.57 276.54 164.68 276.5 164.79 276.44C165.01 276.35 165.24 276.27 165.46 276.2C165.51 276.18 165.57 276.17 165.62 276.15C165.68 276.13 165.75 276.1 165.8 276.08C166.13 275.97 166.46 275.87 166.8 275.79C167.04 275.72 167.28 275.67 167.52 275.61C167.66 275.58 167.8 275.55 167.94 275.52C168.28 275.45 168.62 275.38 168.95 275.35C169.28 275.3 169.64 275.27 169.98 275.22C170.01 275.22 170.03 275.22 170.06 275.22H170.07C170.41 275.19 170.76 275.17 171.08 275.15C171.44 275.13 171.79 275.14 172.14 275.15C172.5 275.16 172.86 275.18 173.2 275.2C173.2 275.2 173.21 275.2 173.23 275.2C173.39 275.2 173.58 275.22 173.76 275.25C173.94 275.26 174.12 275.29 174.29 275.31H174.3C175 275.39 175.71 275.52 176.41 275.7C176.76 275.78 177.11 275.88 177.46 275.98C177.81 276.08 178.15 276.2 178.48 276.32C179.01 276.51 179.54 276.74 180.05 276.98C180.56 277.22 181.08 277.48 181.57 277.76C182.32 278.17 183.03 278.63 183.71 279.12C184.4 279.62 185.05 280.17 185.66 280.74C185.87 280.93 186.07 281.12 186.27 281.33C186.66 281.72 187.03 282.14 187.39 282.57C189.99 285.69 191.55 289.57 191.35 293.87L191.29 293.92Z" fill="#FCD8C3"/>
<path d="M154.7 288.78H154.71C158.53 283.23 165.34 280.83 171.76 281.64C173.21 281.83 174.63 282.17 175.99 282.68C183.29 285.41 189.23 292.1 188.86 300.23C188.84 300.63 188.78 300.99 188.74 301.37C188.92 301.1 189.1 300.83 189.26 300.55C189.43 300.27 189.59 299.98 189.73 299.7C189.88 299.4 190.01 299.11 190.14 298.81C190.27 298.51 190.4 298.21 190.5 297.89C190.61 297.6 190.69 297.31 190.77 297.01C190.83 296.85 190.87 296.68 190.91 296.49C190.96 296.27 191.01 296.04 191.05 295.82C191.11 295.51 191.15 295.2 191.2 294.89C191.24 294.58 191.27 294.26 191.29 293.93C191.49 289.63 189.93 285.75 187.33 282.63C186.97 282.2 186.6 281.79 186.21 281.39C186.01 281.18 185.82 280.99 185.6 280.8C184.99 280.23 184.33 279.69 183.65 279.19C182.96 278.68 182.25 278.23 181.51 277.81C181.02 277.53 180.5 277.26 179.99 277.03C179.48 276.8 178.95 276.57 178.42 276.37C178.09 276.24 177.74 276.13 177.4 276.03C177.05 275.93 176.7 275.83 176.35 275.75C175.65 275.57 174.95 275.43 174.24 275.35H174.23C173.89 275.31 173.53 275.27 173.18 275.24C173.16 275.24 173.15 275.24 173.15 275.24C172.8 275.22 172.45 275.2 172.09 275.19C171.74 275.19 171.39 275.19 171.03 275.19C170.7 275.2 170.36 275.23 170.02 275.25H170.01C170.01 275.25 169.96 275.25 169.93 275.25C169.6 275.3 169.24 275.33 168.9 275.38C168.57 275.41 168.23 275.48 167.89 275.55C167.75 275.58 167.61 275.61 167.47 275.64C167.35 275.67 167.21 275.69 167.08 275.73C166.97 275.75 166.86 275.79 166.76 275.82C166.55 275.87 166.34 275.94 166.12 275.99C166 276.02 165.88 276.06 165.76 276.1C165.71 276.12 165.64 276.14 165.58 276.17C165.53 276.19 165.47 276.2 165.42 276.22C165.2 276.3 164.97 276.37 164.75 276.46C164.51 276.56 164.27 276.65 164.02 276.77C163.9 276.81 163.78 276.87 163.67 276.92C163.45 277.03 163.22 277.14 162.99 277.25L162.94 277.28C162.88 277.32 162.81 277.35 162.75 277.38L162.67 277.43C162.36 277.59 162.05 277.78 161.75 277.97C161.72 277.99 161.67 278.02 161.64 278.05C161.44 278.16 161.25 278.29 161.08 278.42H161.07C160.91 278.55 160.74 278.66 160.6 278.79C160.5 278.87 160.4 278.95 160.31 279.02C159.79 279.43 159.3 279.87 158.84 280.35C158.81 280.38 158.79 280.4 158.76 280.43C158.41 280.79 158.08 281.17 157.77 281.57C157.74 281.59 157.72 281.64 157.69 281.67C157.62 281.74 157.57 281.81 157.52 281.87C157.48 281.94 157.43 281.99 157.41 282.05C157.38 282.07 157.35 282.1 157.33 282.15C157.19 282.33 157.07 282.52 156.95 282.71C156.92 282.76 156.89 282.79 156.86 282.85C156.71 283.09 156.54 283.33 156.4 283.59C156.28 283.79 156.16 283.99 156.06 284.2C156.03 284.25 156 284.28 155.99 284.34C155.95 284.4 155.92 284.45 155.89 284.51C155.89 284.55 155.85 284.58 155.83 284.62C155.73 284.84 155.62 285.07 155.53 285.28C155.52 285.34 155.5 285.38 155.48 285.42C155.39 285.65 155.31 285.88 155.24 286.13C155.17 286.3 155.12 286.47 155.08 286.66C155.01 286.9 154.95 287.14 154.9 287.39C154.89 287.45 154.89 287.49 154.87 287.54C154.84 287.65 154.84 287.77 154.81 287.88C154.79 288.02 154.76 288.16 154.75 288.3C154.73 288.39 154.72 288.48 154.72 288.56C154.7 288.63 154.7 288.7 154.69 288.77L154.7 288.78Z" fill="white"/>
<path d="M191.29 293.92C191.27 294.25 191.25 294.56 191.21 294.88C191.17 295.19 191.12 295.5 191.06 295.81C191.03 296.04 190.98 296.26 190.92 296.48C190.88 296.67 190.84 296.83 190.78 296.99C190.7 297.29 190.61 297.59 190.51 297.87C190.41 298.19 190.28 298.49 190.15 298.79C190.02 299.09 189.89 299.38 189.74 299.68C189.6 299.96 189.44 300.25 189.27 300.53C189.11 300.81 188.93 301.08 188.75 301.35C188.75 301.33 188.75 301.32 188.75 301.3C186.01 305.37 181.31 308.07 176.08 308.52C175.88 308.53 175.69 308.56 175.48 308.56C175.46 308.56 175.44 308.56 175.42 308.56C175.11 308.58 174.81 308.59 174.49 308.6C174.09 308.6 173.7 308.58 173.31 308.56C173.01 308.54 172.7 308.52 172.39 308.48C172.15 308.45 171.89 308.42 171.66 308.4C170.94 308.31 170.22 308.17 169.52 307.99C169.22 307.92 168.92 307.84 168.63 307.75C168.49 307.71 168.36 307.68 168.25 307.62C167.96 307.54 167.7 307.45 167.45 307.36H167.43C167.19 307.27 166.96 307.19 166.72 307.08C166.42 306.96 166.13 306.85 165.83 306.7C165.74 306.68 165.65 306.62 165.55 306.59C165.45 306.54 165.35 306.48 165.24 306.43C165.21 306.41 165.2 306.41 165.17 306.39C164.76 306.19 164.37 305.97 163.97 305.74C163.57 305.51 163.2 305.27 162.82 305.01C162.49 304.79 162.17 304.56 161.87 304.32L161.35 303.92C161.28 303.85 161.2 303.78 161.11 303.72C160.91 303.55 160.7 303.37 160.52 303.2C160.52 303.2 160.51 303.193 160.49 303.18C160.22 302.93 159.96 302.69 159.71 302.43C159.59 302.31 159.49 302.2 159.38 302.08C159.28 301.97 159.17 301.85 159.06 301.72C159.01 301.67 158.98 301.61 158.93 301.56C158.71 301.3 158.51 301.06 158.3 300.8C158.28 300.77 158.24 300.73 158.22 300.69L158.18 300.62C158.04 300.45 157.91 300.28 157.79 300.09C157.79 300.09 157.77 300.09 157.78 300.07C157.71 299.99 157.64 299.89 157.57 299.79C157.47 299.66 157.38 299.51 157.29 299.36C157.24 299.28 157.19 299.2 157.15 299.11C157.04 298.93 156.93 298.76 156.83 298.57C156.72 298.39 156.62 298.19 156.52 298C156.32 297.63 156.14 297.24 155.97 296.84C155.86 296.59 155.76 296.33 155.67 296.08C155.62 295.92 155.56 295.75 155.51 295.59C155.41 295.27 155.3 294.94 155.21 294.6C155.12 294.28 155.05 293.94 154.98 293.59C154.93 293.36 154.89 293.14 154.85 292.91C154.83 292.81 154.82 292.71 154.8 292.61C154.77 292.39 154.75 292.17 154.71 291.93C154.71 291.9 154.71 291.87 154.71 291.84C154.69 291.74 154.69 291.63 154.67 291.53C154.66 291.38 154.65 291.22 154.65 291.07C154.65 290.79 154.64 290.53 154.64 290.27C154.64 289.76 154.66 289.26 154.72 288.74H154.73C154.73 288.67 154.73 288.61 154.75 288.53C154.75 288.45 154.75 288.37 154.78 288.27C154.79 288.14 154.81 287.99 154.84 287.85C154.87 287.74 154.87 287.62 154.9 287.51C154.92 287.47 154.92 287.42 154.93 287.36C154.98 287.11 155.03 286.87 155.11 286.63C155.15 286.44 155.2 286.27 155.27 286.1C155.34 285.85 155.42 285.63 155.51 285.39C155.51 285.37 155.53 285.36 155.54 285.36C155.63 285.1 155.74 284.84 155.87 284.59C155.89 284.55 155.92 284.51 155.93 284.48C155.93 284.48 155.93 284.473 155.93 284.46C155.96 284.41 155.99 284.36 156.02 284.31C156.03 284.25 156.06 284.22 156.09 284.17C156.2 283.96 156.31 283.76 156.43 283.58C156.57 283.31 156.73 283.06 156.89 282.82C156.92 282.77 156.95 282.74 156.98 282.68C157.07 282.53 157.18 282.38 157.27 282.25C157.31 282.21 157.33 282.17 157.37 282.13C157.39 282.09 157.42 282.05 157.45 282.03C157.54 281.89 157.64 281.77 157.73 281.65C157.76 281.62 157.78 281.57 157.81 281.55C158 281.27 158.22 281.01 158.44 280.78C158.56 280.66 158.68 280.52 158.8 280.41C158.83 280.38 158.85 280.36 158.88 280.33C159.34 279.85 159.83 279.41 160.35 279C160.43 278.93 160.54 278.85 160.64 278.77C160.74 278.69 160.83 278.62 160.93 278.54C161 278.5 161.06 278.44 161.12 278.41H161.13C161.26 278.31 161.4 278.22 161.53 278.12C161.61 278.05 161.71 277.99 161.8 277.94C162.1 277.75 162.39 277.57 162.72 277.41L162.8 277.36C162.86 277.32 162.93 277.29 162.99 277.26L163.04 277.23C163.17 277.16 163.31 277.1 163.44 277.03C163.54 276.98 163.63 276.95 163.72 276.9C163.83 276.85 163.95 276.79 164.07 276.75C164.19 276.69 164.32 276.62 164.45 276.57C164.56 276.52 164.67 276.48 164.78 276.43C164.9 276.4 165.02 276.36 165.13 276.31C165.24 276.28 165.35 276.23 165.47 276.19C165.52 276.17 165.58 276.16 165.63 276.14C165.69 276.12 165.76 276.09 165.81 276.07C165.93 276.03 166.04 275.99 166.17 275.96C166.39 275.9 166.6 275.83 166.81 275.79C166.92 275.76 167.02 275.72 167.13 275.7C167.27 275.66 167.4 275.64 167.52 275.61C167.66 275.58 167.8 275.55 167.94 275.52C168.28 275.45 168.62 275.38 168.95 275.35C169.28 275.3 169.64 275.27 169.98 275.22C170.01 275.22 170.03 275.22 170.06 275.22H170.07C170.41 275.19 170.76 275.17 171.08 275.15C171.44 275.13 171.79 275.14 172.14 275.15C172.5 275.16 172.86 275.18 173.2 275.2C173.2 275.2 173.21 275.2 173.23 275.2C173.39 275.2 173.58 275.22 173.76 275.25C173.94 275.26 174.11 275.28 174.29 275.3H174.3C175 275.38 175.71 275.52 176.41 275.7C176.76 275.78 177.11 275.88 177.46 275.98C177.81 276.08 178.15 276.2 178.48 276.32C179.01 276.51 179.54 276.74 180.05 276.98C180.56 277.22 181.08 277.48 181.57 277.76C182.32 278.17 183.03 278.63 183.71 279.12C184.4 279.62 185.05 280.17 185.66 280.74C185.87 280.93 186.07 281.12 186.27 281.33C186.66 281.72 187.03 282.14 187.39 282.57C189.99 285.69 191.55 289.57 191.35 293.87L191.29 293.92Z" stroke="#263238" stroke-width="2.5" stroke-linecap="round" stroke-linejoin="round"/>
<path d="M147.6 270.42C149.15 269.77 150.63 271.67 149.71 273.13C147.44 276.7 144.07 282.69 143.97 286.89C143.82 293.24 140.37 294 138.94 291C137.5 288 140.1 277.31 144.12 272.98C145.35 271.65 146.54 270.87 147.61 270.42H147.6Z" fill="#263238" stroke="#263238" stroke-width="2.5" stroke-linecap="round" stroke-linejoin="round"/>
<path d="M158.26 265.23C158.05 266.33 157.07 267.02 156.07 266.77C155.07 266.52 154.44 265.42 154.65 264.32C154.86 263.22 155.84 262.53 156.84 262.78C157.84 263.03 158.47 264.13 158.26 265.23Z" fill="#263238" stroke="#263238" stroke-width="2.5" stroke-linecap="round" stroke-linejoin="round"/>
<path d="M166.78 270.08C165.41 270.94 164.62 272.37 164.53 273.87C163.14 273.3 161.51 273.37 160.13 274.22C157.92 275.6 157.23 278.46 158.51 280.7C158.48 280.73 158.45 280.76 158.42 280.8C158.2 281.03 157.98 281.29 157.79 281.57C157.76 281.59 157.74 281.64 157.71 281.67C157.61 281.79 157.52 281.92 157.43 282.05C157.4 282.07 157.37 282.1 157.35 282.15C157.31 282.19 157.29 282.23 157.25 282.27C157.16 282.41 157.06 282.55 156.96 282.7C156.93 282.75 156.9 282.78 156.87 282.84C156.72 283.08 156.55 283.32 156.41 283.58C156.29 283.78 156.17 283.98 156.07 284.19C156.04 284.24 156.01 284.27 156 284.33C155.97 284.38 155.94 284.43 155.91 284.48C155.91 284.48 155.91 284.487 155.91 284.5C155.91 284.5 155.87 284.57 155.85 284.61C155.72 284.86 155.61 285.12 155.52 285.38C155.51 285.38 155.5 285.39 155.49 285.41C155.4 285.64 155.32 285.87 155.25 286.12C155.18 286.29 155.13 286.46 155.09 286.65C155.02 286.89 154.96 287.13 154.91 287.38C154.9 287.44 154.9 287.48 154.88 287.53C154.85 287.64 154.85 287.76 154.82 287.87C154.8 288.01 154.77 288.15 154.76 288.29C154.74 288.38 154.73 288.47 154.73 288.55C154.71 288.62 154.71 288.69 154.71 288.75H154.7C154.64 289.27 154.62 289.77 154.62 290.28C154.62 290.53 154.62 290.8 154.63 291.06C154.63 291.23 154.63 291.39 154.65 291.54C154.67 291.64 154.67 291.75 154.69 291.85C154.69 291.88 154.69 291.91 154.69 291.94C154.72 292.17 154.75 292.39 154.78 292.62C154.8 292.72 154.81 292.82 154.83 292.92C154.86 293.15 154.91 293.38 154.95 293.6C155.03 293.95 155.09 294.29 155.18 294.61C155.27 294.95 155.38 295.28 155.48 295.6C155.53 295.76 155.59 295.93 155.64 296.09C155.74 296.35 155.83 296.6 155.94 296.85C156.11 297.25 156.29 297.64 156.49 298.01C156.59 298.2 156.68 298.4 156.8 298.58C156.94 298.86 157.1 299.11 157.26 299.37C157.35 299.52 157.45 299.67 157.54 299.8C157.6 299.9 157.68 300 157.75 300.08C157.75 300.1 157.76 300.1 157.76 300.1C157.88 300.29 158.02 300.46 158.16 300.63L158.2 300.7C158.2 300.7 158.26 300.77 158.28 300.81C158.51 301.13 158.77 301.44 159.04 301.73C159.15 301.85 159.26 301.98 159.36 302.09C159.47 302.21 159.57 302.32 159.69 302.44C159.94 302.69 160.21 302.94 160.47 303.19C160.47 303.19 160.48 303.197 160.5 303.21C160.69 303.38 160.89 303.55 161.09 303.73C161.17 303.79 161.25 303.87 161.33 303.93L161.85 304.33C162.16 304.57 162.47 304.8 162.8 305.02C163.18 305.27 163.55 305.52 163.95 305.75C164.35 305.98 164.74 306.2 165.15 306.4C165.18 306.42 165.19 306.42 165.22 306.44C165.33 306.26 165.43 306.07 165.54 305.89C166.96 304.02 168.2 302.01 169.21 299.82C171.98 293.84 172.74 287.51 171.73 281.62C171.56 280.61 171.34 279.62 171.06 278.65C171.33 278.54 171.6 278.42 171.85 278.26C174.11 276.85 174.8 273.87 173.39 271.61C171.98 269.35 169 268.66 166.74 270.07L166.78 270.08Z" fill="#263238" stroke="#263238" stroke-width="2.5" stroke-linecap="round" stroke-linejoin="round"/>
<path d="M83.9502 287.51C95.2402 291.41 115.25 279.52 115.25 279.52C114.1 279.44 114.9 271.92 114.9 271.92C114.9 271.92 124.56 252.9 121.05 247.62C117.84 242.81 112.91 251.28 112.91 251.28C112.91 251.28 112.91 213.68 101.77 231.81C101.77 231.81 96.1802 230.65 95.0202 237.59C95.0202 237.59 89.4302 236.63 88.0802 247.81C86.4902 260.97 83.9502 287.51 83.9502 287.51Z" fill="#FCD8C3" stroke="#263238" stroke-width="2.5" stroke-linecap="round" stroke-linejoin="round"/>
<path d="M106.78 261.45C106.78 257.08 112.91 251.28 112.91 251.28" stroke="#263238" stroke-width="2.5" stroke-linecap="round" stroke-linejoin="round"/>
<path d="M96.3598 253.02L95.0098 237.59" stroke="#263238" stroke-width="2.5" stroke-linecap="round" stroke-linejoin="round"/>
<path d="M103.88 245.31L102.88 231.42" stroke="#263238" stroke-width="2.5" stroke-linecap="round" stroke-linejoin="round"/>
<path d="M120.224 322.16C142.506 263.068 139.376 207.173 113.233 197.315C87.0897 187.457 47.8332 227.369 25.5512 286.462C3.2692 345.554 6.39935 401.449 32.5426 411.307C58.6859 421.165 97.9424 381.253 120.224 322.16Z" fill="white" stroke="#263238" stroke-width="2.5" stroke-linecap="round" stroke-linejoin="round"/>
<path d="M113.23 197.3C112.27 196.94 111.29 196.65 110.3 196.42C130.82 212.13 131.79 263.68 111.34 317.93C89.8798 374.86 52.6598 413.98 26.5898 407.96C28.4198 409.36 30.4098 410.49 32.5498 411.29C58.6898 421.15 97.9498 381.23 120.23 322.14C142.51 263.05 139.38 207.15 113.23 197.3Z" fill="white" stroke="#263238" stroke-width="2.5" stroke-linecap="round" stroke-linejoin="round"/>
<path d="M89.1673 310.445C103.252 273.093 103.4 238.564 89.4992 233.322C75.5981 228.081 52.9115 254.111 38.8271 291.463C24.7428 328.815 24.5942 363.344 38.4953 368.586C52.3963 373.827 75.083 347.797 89.1673 310.445Z" fill="white" stroke="#263238" stroke-width="2.5" stroke-linecap="round" stroke-linejoin="round"/>
<path d="M49.0901 291.02C41.9101 310.05 41.8401 327.64 48.9201 330.32C56.0001 332.99 67.5601 319.73 74.7401 300.7C81.9201 281.67 81.9901 264.08 74.9101 261.41C67.8301 258.74 56.2701 272 49.0901 291.03V291.02Z" fill="white" stroke="#263238" stroke-width="2.5" stroke-linecap="round" stroke-linejoin="round"/>
<path d="M169.32 312.18C171.46 314.54 183.92 319.12 191.31 317.28" stroke="#263238" stroke-width="2.5" stroke-linecap="round" stroke-linejoin="round"/>
<path d="M162.98 378.22C175.42 393.58 197.28 401.85 209.69 400.08" stroke="#263238" stroke-width="2.5" stroke-linecap="round" stroke-linejoin="round"/>
</g>
<defs>
<clipPath id="clip0_2471_6728">
<rect width="459.17" height="416" fill="white"/>
</clipPath>
</defs>
</svg>
