<svg width="176" height="146" viewBox="0 0 176 146" fill="none" xmlns="http://www.w3.org/2000/svg">
<path d="M166.036 91.327C174.745 102.09 173.873 125.902 173.873 125.902V145.725H0.999527V5.12065C0.999527 5.12065 28.7222 -4.15269 41.5672 5.12065C52.2108 12.8047 55.8581 35.5464 55.8581 35.5464C55.8581 35.5464 92.6813 23.612 110.256 35.5464C125.177 45.6791 131.462 76.5751 131.462 76.5751C131.462 76.5751 156.803 79.9146 166.036 91.327Z" fill="white"/>
<path d="M173.867 125.44C173.867 125.44 174.415 102.78 165.561 92.236C156.473 81.4151 132.945 77.0077 132.945 77.0077" stroke="black" stroke-width="2.38558" stroke-linecap="round"/>
<path d="M135.667 90.6495C135.667 90.6495 128.868 48.0214 108.381 35.3954C85.8727 21.5243 40.848 40.1705 40.848 40.1705" stroke="black" stroke-width="2.38558" stroke-linecap="round"/>
<path d="M55.8568 34.7135C55.8568 34.7135 52.9395 15.0909 44.2603 7.42752C31.6652 -3.69322 1.28485 5.38108 1.28485 5.38108" stroke="black" stroke-width="2.38558" stroke-linecap="round"/>
</svg>
