<svg width="17" height="16" viewBox="0 0 17 16" fill="none" xmlns="http://www.w3.org/2000/svg">
<path d="M7.68448 1.42108C8.0044 0.436462 9.39738 0.436462 9.7173 1.42108L10.8604 4.93909C11.0034 5.37942 11.4138 5.67755 11.8768 5.67755H15.5758C16.6111 5.67755 17.0416 7.00235 16.204 7.61088L13.2114 9.78512C12.8368 10.0573 12.6801 10.5397 12.8232 10.98L13.9662 14.498C14.2862 15.4826 13.1592 16.3014 12.3217 15.6929L9.32906 13.5186C8.95449 13.2465 8.44728 13.2465 8.07271 13.5186L5.08012 15.6929C4.24255 16.3014 3.11561 15.4826 3.43553 14.498L4.5786 10.98C4.72168 10.5397 4.56494 10.0573 4.19037 9.78512L1.19778 7.61088C0.360209 7.00235 0.790663 5.67755 1.82595 5.67755H5.525C5.988 5.67755 6.39834 5.37942 6.54141 4.93909L7.68448 1.42108Z" fill="#F59E0B"/>
</svg>
